<?xml version="1.0" encoding="UTF-8"?>
<svg width="22px" height="19px" viewBox="0 0 22 19" version="1.1" xmlns="http://www.w3.org/2000/svg" xmlns:xlink="http://www.w3.org/1999/xlink">
    <!-- Generator: Sketch 53.2 (72643) - https://sketchapp.com -->
    <title>left-arrow</title>
    <desc>Created with Sketch.</desc>
    <g id="Page-1" stroke="none" stroke-width="1" fill="none" fill-rule="evenodd">
        <g id="iPhone-X-Scroll" transform="translate(-35.000000, -80.000000)" fill="#505050" fill-rule="nonzero">
            <g id="left-arrow" transform="translate(35.000000, 80.000000)">
                <path d="M20.7633499,7.70615585 L20.7976913,7.7139669 L6.07629615,7.7139669 L10.7041651,2.89138925 C10.9307829,2.65594198 11.0550918,2.33699089 11.0550918,2.00223173 C11.0550918,1.66747257 10.9307829,1.35075321 10.7041651,1.114748 L9.98406766,0.365631393 C9.75762868,0.130184118 9.45588891,0 9.13411662,0 C8.81216547,0 8.51024684,0.129254231 8.28380787,0.364701506 L0.350752683,8.61260926 C0.123419399,8.84898642 -0.000889516798,9.16384601 4.79195054e-06,9.49879115 C-0.000889516798,9.83559606 0.123419399,10.1506416 0.350752683,10.3866468 L8.28380787,18.6352985 C8.51024684,18.8705598 8.81198661,19 9.13411662,19 C9.45588891,19 9.75762868,18.8703738 9.98406766,18.6352985 L10.7041651,17.8861819 C10.9307829,17.6511066 11.0550918,17.3371769 11.0550918,17.0024177 C11.0550918,16.6678445 10.9307829,16.3704668 10.7041651,16.1352055 L6.02406852,11.2856611 L20.7798051,11.2856611 C21.4428456,11.2856611 22,10.6914636 22,10.0024177 L22,8.94290497 C22,8.25385903 21.4263904,7.70615585 20.7633499,7.70615585 Z" id="Path"></path>
            </g>
        </g>
    </g>
</svg>